# xmcd CD database file
#
# Track frame offsets:
#	183
#	14068
#	26720
#	45738
#	59858
#	74335
#	90980
#	107395
#	124898
#	139365
#	159308
#	172883
#	187655
#	204900
#	221763
#	235880
#	252455
#	267118
#	281540
#	305175
#
# Disc length: 4214 seconds
#
# Revision: 0
# Processed by: cddbd v1.5.2PL0 Copyright (c) Steve Scherf et al.
# Submitted via: CDex 1.51
#
DISCID=26107414
DTITLE=Various Artist - American Jazz In Paris
DYEAR=1993
DGENRE=Jazz
TTITLE0=Sidney Bechet - Out Of Nowhere
TTITLE1=Dizzy Gillespie - On the Sunny Side Of The Street
TTITLE2=Gerry Mulligan - Laura
TTITLE3=Johnny Hodges - Perdido
TTITLE4=Coleman Hawkins - Sophisticated lady
TTITLE5=Lionel Hampton - More And More Crazy
TTITLE6=Lucky Thompson - I Can't Give You Anything But Love
TTITLE7=Mary Lou Williams - Moonglow
TTITLE8=Buck Clayton - Bond Et Rebonds
TTITLE9=Albert Nicholas - Black And BLue
TTITLE10=Zoot Sims - Night And Day
TTITLE11=Kenny Clarke - Illusion
TTITLE12=Samy Price - Big Mouth Steve From Baltimore
TTITLE13=Jimmy Jones - Good Morning Hearttache
TTITLE14=Lee Konitz - Ill Remember April
TTITLE15=James Moody - Bootsie
TTITLE16=Willie Smith - Pretty Baby
TTITLE17=Earl Hines - Chicago
TTITLE18=Thelonious Monk - Round About Midnight
TTITLE19=Sidney Bechet - Danse Du Noir
EXTD=YEAR: 1993
EXTT0=
EXTT1=
EXTT2=
EXTT3=
EXTT4=
EXTT5=
EXTT6=
EXTT7=
EXTT8=
EXTT9=
EXTT10=
EXTT11=
EXTT12=
EXTT13=
EXTT14=
EXTT15=
EXTT16=
EXTT17=
EXTT18=
EXTT19=
PLAYORDER=
